<mxfile host="Electron" agent="Mozilla/5.0 (Windows NT 10.0; Win64; x64) AppleWebKit/537.36 (KHTML, like Gecko) draw.io/24.7.17 Chrome/128.0.6613.36 Electron/32.0.1 Safari/537.36" version="24.7.17">
  <diagram name="Page-1" id="uqv7fCo5bTJ5ZhZfO4SZ">
    <mxGraphModel dx="3067" dy="799" grid="1" gridSize="10" guides="1" tooltips="1" connect="1" arrows="1" fold="1" page="1" pageScale="1" pageWidth="850" pageHeight="850" math="0" shadow="0">
      <root>
        <mxCell id="0" />
        <mxCell id="1" parent="0" />
        <mxCell id="eIlVsd8qLdUAVbMQkdwf-85" style="edgeStyle=orthogonalEdgeStyle;rounded=0;orthogonalLoop=1;jettySize=auto;html=1;exitX=0.5;exitY=1;exitDx=0;exitDy=0;entryX=0;entryY=0.5;entryDx=0;entryDy=0;dashed=1;" parent="1" source="o858JBSHndgNJicVqMe8-1" target="eIlVsd8qLdUAVbMQkdwf-83" edge="1">
          <mxGeometry relative="1" as="geometry" />
        </mxCell>
        <mxCell id="o858JBSHndgNJicVqMe8-1" value="Sender" style="rounded=1;whiteSpace=wrap;html=1;strokeWidth=3;fontSize=18;fontStyle=1" parent="1" vertex="1">
          <mxGeometry x="-850" y="990" width="120" height="80" as="geometry" />
        </mxCell>
        <mxCell id="eIlVsd8qLdUAVbMQkdwf-91" style="edgeStyle=orthogonalEdgeStyle;rounded=0;orthogonalLoop=1;jettySize=auto;html=1;exitX=0.5;exitY=0;exitDx=0;exitDy=0;entryX=0.75;entryY=1;entryDx=0;entryDy=0;" parent="1" source="o858JBSHndgNJicVqMe8-2" target="eIlVsd8qLdUAVbMQkdwf-1" edge="1">
          <mxGeometry relative="1" as="geometry" />
        </mxCell>
        <mxCell id="o858JBSHndgNJicVqMe8-2" value="Receiver" style="rounded=1;whiteSpace=wrap;html=1;strokeWidth=3;fontSize=18;fontStyle=1" parent="1" vertex="1">
          <mxGeometry x="-710" y="990" width="120" height="80" as="geometry" />
        </mxCell>
        <mxCell id="o858JBSHndgNJicVqMe8-3" value="Composer" style="rounded=1;whiteSpace=wrap;html=1;strokeWidth=3;fontSize=18;fontStyle=1" parent="1" vertex="1">
          <mxGeometry x="-420" y="800" width="120" height="80" as="geometry" />
        </mxCell>
        <mxCell id="eIlVsd8qLdUAVbMQkdwf-14" style="edgeStyle=orthogonalEdgeStyle;rounded=0;orthogonalLoop=1;jettySize=auto;html=1;exitX=0;exitY=0.25;exitDx=0;exitDy=0;entryX=1;entryY=0.5;entryDx=0;entryDy=0;" parent="1" source="o858JBSHndgNJicVqMe8-4" target="eIlVsd8qLdUAVbMQkdwf-47" edge="1">
          <mxGeometry relative="1" as="geometry">
            <Array as="points">
              <mxPoint x="-570" y="980" />
              <mxPoint x="-570" y="740" />
            </Array>
          </mxGeometry>
        </mxCell>
        <mxCell id="o858JBSHndgNJicVqMe8-4" value="Parser" style="rounded=1;whiteSpace=wrap;html=1;strokeWidth=3;fontSize=18;fontStyle=1" parent="1" vertex="1">
          <mxGeometry x="-420" y="960" width="120" height="80" as="geometry" />
        </mxCell>
        <mxCell id="eIlVsd8qLdUAVbMQkdwf-60" style="edgeStyle=orthogonalEdgeStyle;rounded=0;orthogonalLoop=1;jettySize=auto;html=1;exitX=1;exitY=0.25;exitDx=0;exitDy=0;entryX=0;entryY=0.5;entryDx=0;entryDy=0;" parent="1" source="o858JBSHndgNJicVqMe8-5" target="eIlVsd8qLdUAVbMQkdwf-55" edge="1">
          <mxGeometry relative="1" as="geometry">
            <Array as="points">
              <mxPoint x="-980" y="820" />
              <mxPoint x="-980" y="680" />
            </Array>
          </mxGeometry>
        </mxCell>
        <mxCell id="o858JBSHndgNJicVqMe8-5" value="Poller" style="rounded=1;whiteSpace=wrap;html=1;strokeWidth=3;fontSize=18;fontStyle=1" parent="1" vertex="1">
          <mxGeometry x="-1250" y="800" width="120" height="80" as="geometry" />
        </mxCell>
        <mxCell id="eIlVsd8qLdUAVbMQkdwf-88" style="edgeStyle=orthogonalEdgeStyle;rounded=0;orthogonalLoop=1;jettySize=auto;html=1;entryX=0.5;entryY=1;entryDx=0;entryDy=0;dashed=1;" parent="1" source="o858JBSHndgNJicVqMe8-6" target="eIlVsd8qLdUAVbMQkdwf-86" edge="1">
          <mxGeometry relative="1" as="geometry" />
        </mxCell>
        <mxCell id="o858JBSHndgNJicVqMe8-6" value="Shower" style="rounded=1;whiteSpace=wrap;html=1;strokeWidth=3;fontSize=18;fontStyle=1" parent="1" vertex="1">
          <mxGeometry x="-1250" y="960" width="120" height="80" as="geometry" />
        </mxCell>
        <mxCell id="eIlVsd8qLdUAVbMQkdwf-96" style="edgeStyle=orthogonalEdgeStyle;rounded=0;orthogonalLoop=1;jettySize=auto;html=1;exitX=0.5;exitY=0;exitDx=0;exitDy=0;entryX=0;entryY=0.5;entryDx=0;entryDy=0;dashed=1;" parent="1" source="o858JBSHndgNJicVqMe8-7" target="eIlVsd8qLdUAVbMQkdwf-95" edge="1">
          <mxGeometry relative="1" as="geometry" />
        </mxCell>
        <mxCell id="o858JBSHndgNJicVqMe8-7" value="Writer" style="rounded=1;whiteSpace=wrap;html=1;strokeWidth=3;fontSize=18;fontStyle=1" parent="1" vertex="1">
          <mxGeometry x="-840" y="440" width="120" height="80" as="geometry" />
        </mxCell>
        <mxCell id="eIlVsd8qLdUAVbMQkdwf-77" style="edgeStyle=orthogonalEdgeStyle;rounded=0;orthogonalLoop=1;jettySize=auto;html=1;exitX=0.5;exitY=1;exitDx=0;exitDy=0;entryX=0.795;entryY=-0.006;entryDx=0;entryDy=0;entryPerimeter=0;" parent="1" source="o858JBSHndgNJicVqMe8-8" target="eIlVsd8qLdUAVbMQkdwf-1" edge="1">
          <mxGeometry relative="1" as="geometry" />
        </mxCell>
        <mxCell id="o858JBSHndgNJicVqMe8-8" value="Reader" style="rounded=1;whiteSpace=wrap;html=1;strokeWidth=3;fontSize=18;fontStyle=1" parent="1" vertex="1">
          <mxGeometry x="-650" y="440" width="120" height="80" as="geometry" />
        </mxCell>
        <mxCell id="eIlVsd8qLdUAVbMQkdwf-12" style="edgeStyle=orthogonalEdgeStyle;rounded=0;orthogonalLoop=1;jettySize=auto;html=1;entryX=0;entryY=0.25;entryDx=0;entryDy=0;exitX=1;exitY=0.5;exitDx=0;exitDy=0;" parent="1" source="eIlVsd8qLdUAVbMQkdwf-44" target="o858JBSHndgNJicVqMe8-3" edge="1">
          <mxGeometry relative="1" as="geometry">
            <mxPoint x="-570" y="690" as="sourcePoint" />
            <Array as="points">
              <mxPoint x="-510" y="680" />
              <mxPoint x="-510" y="820" />
            </Array>
          </mxGeometry>
        </mxCell>
        <mxCell id="eIlVsd8qLdUAVbMQkdwf-16" style="edgeStyle=orthogonalEdgeStyle;rounded=0;orthogonalLoop=1;jettySize=auto;html=1;exitX=0;exitY=0.5;exitDx=0;exitDy=0;entryX=1;entryY=0.25;entryDx=0;entryDy=0;" parent="1" source="eIlVsd8qLdUAVbMQkdwf-58" target="o858JBSHndgNJicVqMe8-6" edge="1">
          <mxGeometry relative="1" as="geometry">
            <Array as="points">
              <mxPoint x="-900" y="740" />
              <mxPoint x="-900" y="980" />
            </Array>
          </mxGeometry>
        </mxCell>
        <mxCell id="eIlVsd8qLdUAVbMQkdwf-74" style="edgeStyle=orthogonalEdgeStyle;rounded=0;orthogonalLoop=1;jettySize=auto;html=1;exitX=0.5;exitY=0;exitDx=0;exitDy=0;entryX=0.5;entryY=1;entryDx=0;entryDy=0;" parent="1" source="eIlVsd8qLdUAVbMQkdwf-1" target="o858JBSHndgNJicVqMe8-7" edge="1">
          <mxGeometry relative="1" as="geometry">
            <Array as="points">
              <mxPoint x="-710" y="600" />
              <mxPoint x="-780" y="600" />
            </Array>
          </mxGeometry>
        </mxCell>
        <mxCell id="eIlVsd8qLdUAVbMQkdwf-80" style="edgeStyle=orthogonalEdgeStyle;rounded=0;orthogonalLoop=1;jettySize=auto;html=1;exitX=0.25;exitY=1;exitDx=0;exitDy=0;entryX=0.5;entryY=0;entryDx=0;entryDy=0;" parent="1" source="eIlVsd8qLdUAVbMQkdwf-1" target="o858JBSHndgNJicVqMe8-1" edge="1">
          <mxGeometry relative="1" as="geometry" />
        </mxCell>
        <mxCell id="eIlVsd8qLdUAVbMQkdwf-94" style="edgeStyle=orthogonalEdgeStyle;rounded=0;orthogonalLoop=1;jettySize=auto;html=1;exitX=0.25;exitY=0;exitDx=0;exitDy=0;entryX=0;entryY=0.5;entryDx=0;entryDy=0;" parent="1" source="eIlVsd8qLdUAVbMQkdwf-1" target="o858JBSHndgNJicVqMe8-7" edge="1">
          <mxGeometry relative="1" as="geometry">
            <Array as="points">
              <mxPoint x="-760" y="620" />
              <mxPoint x="-880" y="620" />
              <mxPoint x="-880" y="480" />
            </Array>
          </mxGeometry>
        </mxCell>
        <mxCell id="eIlVsd8qLdUAVbMQkdwf-1" value="Manager" style="rounded=1;whiteSpace=wrap;html=1;strokeWidth=3;fontSize=18;fontStyle=1;verticalAlign=middle;" parent="1" vertex="1">
          <mxGeometry x="-810" y="670" width="200" height="100" as="geometry" />
        </mxCell>
        <mxCell id="eIlVsd8qLdUAVbMQkdwf-11" value="&lt;div&gt;&lt;div&gt;struct MsgWidgetDescription;&lt;/div&gt;&lt;/div&gt;&lt;div&gt;&lt;div&gt;placeWidget()&lt;/div&gt;&lt;/div&gt;" style="text;html=1;align=left;verticalAlign=bottom;whiteSpace=wrap;rounded=0;" parent="1" vertex="1">
          <mxGeometry x="-1110" y="860" width="160" height="30" as="geometry" />
        </mxCell>
        <mxCell id="eIlVsd8qLdUAVbMQkdwf-44" value="" style="rounded=0;whiteSpace=wrap;html=1;" parent="1" vertex="1">
          <mxGeometry x="-610" y="670" width="20" height="20" as="geometry" />
        </mxCell>
        <mxCell id="eIlVsd8qLdUAVbMQkdwf-50" style="edgeStyle=orthogonalEdgeStyle;rounded=0;orthogonalLoop=1;jettySize=auto;html=1;exitX=1;exitY=0.5;exitDx=0;exitDy=0;entryX=0;entryY=0.75;entryDx=0;entryDy=0;" parent="1" source="eIlVsd8qLdUAVbMQkdwf-45" target="o858JBSHndgNJicVqMe8-3" edge="1">
          <mxGeometry relative="1" as="geometry">
            <Array as="points">
              <mxPoint x="-530" y="700" />
              <mxPoint x="-530" y="860" />
            </Array>
          </mxGeometry>
        </mxCell>
        <mxCell id="eIlVsd8qLdUAVbMQkdwf-45" value="" style="rounded=0;whiteSpace=wrap;html=1;" parent="1" vertex="1">
          <mxGeometry x="-610" y="690" width="20" height="20" as="geometry" />
        </mxCell>
        <mxCell id="eIlVsd8qLdUAVbMQkdwf-46" value="" style="rounded=0;whiteSpace=wrap;html=1;" parent="1" vertex="1">
          <mxGeometry x="-610" y="710" width="20" height="20" as="geometry" />
        </mxCell>
        <mxCell id="eIlVsd8qLdUAVbMQkdwf-47" value="" style="rounded=0;whiteSpace=wrap;html=1;" parent="1" vertex="1">
          <mxGeometry x="-610" y="730" width="20" height="20" as="geometry" />
        </mxCell>
        <mxCell id="eIlVsd8qLdUAVbMQkdwf-68" style="edgeStyle=orthogonalEdgeStyle;rounded=0;orthogonalLoop=1;jettySize=auto;html=1;exitX=1;exitY=0.5;exitDx=0;exitDy=0;entryX=0;entryY=0.75;entryDx=0;entryDy=0;" parent="1" source="eIlVsd8qLdUAVbMQkdwf-48" target="o858JBSHndgNJicVqMe8-4" edge="1">
          <mxGeometry relative="1" as="geometry">
            <Array as="points">
              <mxPoint x="-580" y="760" />
              <mxPoint x="-580" y="1020" />
            </Array>
          </mxGeometry>
        </mxCell>
        <mxCell id="eIlVsd8qLdUAVbMQkdwf-48" value="" style="rounded=0;whiteSpace=wrap;html=1;" parent="1" vertex="1">
          <mxGeometry x="-610" y="750" width="20" height="20" as="geometry" />
        </mxCell>
        <mxCell id="eIlVsd8qLdUAVbMQkdwf-49" value="struct AppLevelMsg,&lt;div&gt;struct CanMsg;&lt;/div&gt;&lt;div&gt;&lt;span style=&quot;background-color: initial;&quot;&gt;compose()&lt;/span&gt;&lt;/div&gt;" style="text;html=1;align=left;verticalAlign=bottom;whiteSpace=wrap;rounded=0;" parent="1" vertex="1">
          <mxGeometry x="-580" y="630" width="120" height="50" as="geometry" />
        </mxCell>
        <mxCell id="eIlVsd8qLdUAVbMQkdwf-51" value="&lt;div&gt;struct MsgDescription;&lt;br&gt;&lt;/div&gt;&lt;div&gt;&lt;span style=&quot;background-color: initial;&quot;&gt;registerMsgType()&lt;/span&gt;&lt;br&gt;&lt;/div&gt;" style="text;html=1;align=left;verticalAlign=bottom;whiteSpace=wrap;rounded=0;" parent="1" vertex="1">
          <mxGeometry x="-550" y="860" width="130" height="30" as="geometry" />
        </mxCell>
        <mxCell id="eIlVsd8qLdUAVbMQkdwf-52" value="struct AppLevelMsg,&lt;div&gt;struct CanMsg;&lt;/div&gt;&lt;div&gt;&lt;span style=&quot;background-color: initial;&quot;&gt;parse()&lt;/span&gt;&lt;/div&gt;" style="text;html=1;align=left;verticalAlign=bottom;whiteSpace=wrap;rounded=0;" parent="1" vertex="1">
          <mxGeometry x="-570" y="930" width="120" height="50" as="geometry" />
        </mxCell>
        <mxCell id="eIlVsd8qLdUAVbMQkdwf-53" value="&lt;div&gt;struct MsgDescription;&lt;br&gt;&lt;/div&gt;&lt;div&gt;&lt;span style=&quot;background-color: initial;&quot;&gt;registerMsgType()&lt;/span&gt;&lt;br&gt;&lt;/div&gt;" style="text;html=1;align=left;verticalAlign=bottom;whiteSpace=wrap;rounded=0;" parent="1" vertex="1">
          <mxGeometry x="-570" y="1020" width="130" height="30" as="geometry" />
        </mxCell>
        <mxCell id="eIlVsd8qLdUAVbMQkdwf-55" value="" style="rounded=0;whiteSpace=wrap;html=1;" parent="1" vertex="1">
          <mxGeometry x="-830" y="670" width="20" height="20" as="geometry" />
        </mxCell>
        <mxCell id="eIlVsd8qLdUAVbMQkdwf-56" value="" style="rounded=0;whiteSpace=wrap;html=1;" parent="1" vertex="1">
          <mxGeometry x="-830" y="690" width="20" height="20" as="geometry" />
        </mxCell>
        <mxCell id="eIlVsd8qLdUAVbMQkdwf-57" value="" style="rounded=0;whiteSpace=wrap;html=1;" parent="1" vertex="1">
          <mxGeometry x="-830" y="710" width="20" height="20" as="geometry" />
        </mxCell>
        <mxCell id="eIlVsd8qLdUAVbMQkdwf-58" value="" style="rounded=0;whiteSpace=wrap;html=1;" parent="1" vertex="1">
          <mxGeometry x="-830" y="730" width="20" height="20" as="geometry" />
        </mxCell>
        <mxCell id="eIlVsd8qLdUAVbMQkdwf-67" style="edgeStyle=orthogonalEdgeStyle;rounded=0;orthogonalLoop=1;jettySize=auto;html=1;exitX=0;exitY=0.5;exitDx=0;exitDy=0;entryX=1;entryY=0.75;entryDx=0;entryDy=0;" parent="1" source="eIlVsd8qLdUAVbMQkdwf-59" target="o858JBSHndgNJicVqMe8-6" edge="1">
          <mxGeometry relative="1" as="geometry">
            <Array as="points">
              <mxPoint x="-880" y="760" />
              <mxPoint x="-880" y="1020" />
            </Array>
          </mxGeometry>
        </mxCell>
        <mxCell id="eIlVsd8qLdUAVbMQkdwf-59" value="" style="rounded=0;whiteSpace=wrap;html=1;" parent="1" vertex="1">
          <mxGeometry x="-830" y="750" width="20" height="20" as="geometry" />
        </mxCell>
        <mxCell id="eIlVsd8qLdUAVbMQkdwf-61" value="&lt;div&gt;struct AppLevelMsg,&lt;div&gt;struct CanMsg;&lt;/div&gt;&lt;div&gt;&lt;span style=&quot;background-color: initial;&quot;&gt;poll()&lt;/span&gt;&lt;/div&gt;&lt;/div&gt;" style="text;html=1;align=left;verticalAlign=bottom;whiteSpace=wrap;rounded=0;" parent="1" vertex="1">
          <mxGeometry x="-980" y="630" width="120" height="50" as="geometry" />
        </mxCell>
        <mxCell id="eIlVsd8qLdUAVbMQkdwf-62" style="edgeStyle=orthogonalEdgeStyle;rounded=0;orthogonalLoop=1;jettySize=auto;html=1;exitX=0;exitY=0.5;exitDx=0;exitDy=0;entryX=1;entryY=0.75;entryDx=0;entryDy=0;" parent="1" source="eIlVsd8qLdUAVbMQkdwf-56" target="o858JBSHndgNJicVqMe8-5" edge="1">
          <mxGeometry relative="1" as="geometry">
            <mxPoint x="-1020" y="860" as="targetPoint" />
            <Array as="points">
              <mxPoint x="-960" y="700" />
              <mxPoint x="-960" y="860" />
            </Array>
          </mxGeometry>
        </mxCell>
        <mxCell id="eIlVsd8qLdUAVbMQkdwf-64" value="&lt;div&gt;&lt;div&gt;struct MsgWidgetDescription;&lt;/div&gt;&lt;/div&gt;&lt;div&gt;&lt;div&gt;placeWidget()&lt;/div&gt;&lt;/div&gt;" style="text;html=1;align=left;verticalAlign=bottom;whiteSpace=wrap;rounded=0;" parent="1" vertex="1">
          <mxGeometry x="-1080" y="1020" width="160" height="30" as="geometry" />
        </mxCell>
        <mxCell id="eIlVsd8qLdUAVbMQkdwf-65" value="&lt;div&gt;struct AppLevelMsg,&lt;div&gt;struct CanMsg;&lt;/div&gt;&lt;div&gt;&lt;span style=&quot;background-color: initial;&quot;&gt;show()&lt;/span&gt;&lt;/div&gt;&lt;/div&gt;" style="text;html=1;align=left;verticalAlign=bottom;whiteSpace=wrap;rounded=0;" parent="1" vertex="1">
          <mxGeometry x="-1020" y="930" width="120" height="50" as="geometry" />
        </mxCell>
        <mxCell id="eIlVsd8qLdUAVbMQkdwf-73" value="&lt;div&gt;struct MsgDescription[],&lt;/div&gt;&lt;div&gt;&lt;span style=&quot;background-color: initial;&quot;&gt;struct MsgWidgetDescription[]&lt;/span&gt;;&lt;br&gt;&lt;/div&gt;&lt;div&gt;readConf();&lt;/div&gt;" style="text;html=1;align=left;verticalAlign=middle;whiteSpace=wrap;rounded=0;" parent="1" vertex="1">
          <mxGeometry x="-590" y="520" width="170" height="70" as="geometry" />
        </mxCell>
        <mxCell id="eIlVsd8qLdUAVbMQkdwf-76" value="&lt;div&gt;struct MsgDescription,&lt;/div&gt;&lt;div&gt;&lt;span style=&quot;background-color: initial;&quot;&gt;struct MsgWidgetDescription&lt;/span&gt;;&lt;br&gt;&lt;/div&gt;&lt;div&gt;updateConf();&lt;/div&gt;" style="text;html=1;align=left;verticalAlign=middle;whiteSpace=wrap;rounded=0;" parent="1" vertex="1">
          <mxGeometry x="-780" y="520" width="170" height="80" as="geometry" />
        </mxCell>
        <mxCell id="eIlVsd8qLdUAVbMQkdwf-78" value="&lt;div&gt;struct MsgDescription[],&lt;/div&gt;&lt;div&gt;&lt;span style=&quot;background-color: initial;&quot;&gt;struct MsgWidgetDescription[]&lt;/span&gt;;&lt;br&gt;&lt;/div&gt;&lt;div&gt;saveConf();&lt;/div&gt;" style="text;html=1;align=left;verticalAlign=middle;whiteSpace=wrap;rounded=0;" parent="1" vertex="1">
          <mxGeometry x="-1050" y="510" width="170" height="80" as="geometry" />
        </mxCell>
        <mxCell id="eIlVsd8qLdUAVbMQkdwf-81" value="&lt;div&gt;struct CanMsg;&lt;/div&gt;&lt;div&gt;&lt;span style=&quot;background-color: initial;&quot;&gt;send()&lt;/span&gt;&lt;/div&gt;" style="text;html=1;align=left;verticalAlign=bottom;whiteSpace=wrap;rounded=0;" parent="1" vertex="1">
          <mxGeometry x="-790" y="900" width="120" height="30" as="geometry" />
        </mxCell>
        <mxCell id="eIlVsd8qLdUAVbMQkdwf-82" value="&lt;div&gt;struct CanMsg;&lt;/div&gt;&lt;div&gt;&lt;span style=&quot;background-color: initial;&quot;&gt;receive()&lt;/span&gt;&lt;/div&gt;" style="text;html=1;align=left;verticalAlign=bottom;whiteSpace=wrap;rounded=0;" parent="1" vertex="1">
          <mxGeometry x="-740" y="940" width="90" height="30" as="geometry" />
        </mxCell>
        <mxCell id="eIlVsd8qLdUAVbMQkdwf-90" style="edgeStyle=orthogonalEdgeStyle;rounded=0;orthogonalLoop=1;jettySize=auto;html=1;exitX=1;exitY=0.5;exitDx=0;exitDy=0;entryX=0.5;entryY=1;entryDx=0;entryDy=0;dashed=1;" parent="1" source="eIlVsd8qLdUAVbMQkdwf-83" target="o858JBSHndgNJicVqMe8-2" edge="1">
          <mxGeometry relative="1" as="geometry" />
        </mxCell>
        <mxCell id="eIlVsd8qLdUAVbMQkdwf-83" value="Network Client" style="ellipse;whiteSpace=wrap;html=1;dashed=1;" parent="1" vertex="1">
          <mxGeometry x="-770" y="1150" width="100" height="80" as="geometry" />
        </mxCell>
        <mxCell id="eIlVsd8qLdUAVbMQkdwf-92" style="edgeStyle=orthogonalEdgeStyle;rounded=0;orthogonalLoop=1;jettySize=auto;html=1;exitX=0.5;exitY=0;exitDx=0;exitDy=0;entryX=0;entryY=0.5;entryDx=0;entryDy=0;dashed=1;" parent="1" source="eIlVsd8qLdUAVbMQkdwf-86" target="o858JBSHndgNJicVqMe8-5" edge="1">
          <mxGeometry relative="1" as="geometry" />
        </mxCell>
        <mxCell id="eIlVsd8qLdUAVbMQkdwf-86" value="GUI&lt;br&gt;Framewrok" style="ellipse;whiteSpace=wrap;html=1;dashed=1;" parent="1" vertex="1">
          <mxGeometry x="-1410" y="880" width="100" height="80" as="geometry" />
        </mxCell>
        <mxCell id="eIlVsd8qLdUAVbMQkdwf-95" value="File System" style="ellipse;whiteSpace=wrap;html=1;dashed=1;" parent="1" vertex="1">
          <mxGeometry x="-740" y="320" width="100" height="80" as="geometry" />
        </mxCell>
        <mxCell id="eIlVsd8qLdUAVbMQkdwf-97" style="edgeStyle=orthogonalEdgeStyle;rounded=0;orthogonalLoop=1;jettySize=auto;html=1;exitX=1;exitY=0.5;exitDx=0;exitDy=0;entryX=0.5;entryY=0;entryDx=0;entryDy=0;dashed=1;" parent="1" source="eIlVsd8qLdUAVbMQkdwf-95" target="o858JBSHndgNJicVqMe8-8" edge="1">
          <mxGeometry relative="1" as="geometry">
            <mxPoint x="-580" y="440" as="targetPoint" />
          </mxGeometry>
        </mxCell>
        <mxCell id="RxVEweEcyjAFFzbMhuwT-1" value="ToDo:&lt;div&gt;- Rearrage (3/3/3/5)&lt;/div&gt;&lt;div&gt;- Actor&lt;/div&gt;&lt;div&gt;- Entry point&lt;/div&gt;&lt;div&gt;- Internal Links&lt;/div&gt;&lt;div&gt;- Common Application Aspects including GUI&lt;/div&gt;" style="text;html=1;align=left;verticalAlign=top;whiteSpace=wrap;rounded=0;fontSize=32;" vertex="1" parent="1">
          <mxGeometry x="-1580" y="100" width="670" height="310" as="geometry" />
        </mxCell>
      </root>
    </mxGraphModel>
  </diagram>
</mxfile>
